<?xml version="1.0" encoding="utf-8"?>
<!-- Generator: Adobe Illustrator 16.0.0, SVG Export Plug-In . SVG Version: 6.00 Build 0)  -->
<!DOCTYPE svg PUBLIC "-//W3C//DTD SVG 1.1//EN" "http://www.w3.org/Graphics/SVG/1.1/DTD/svg11.dtd">
<svg version="1.1" id="Layer_1" xmlns="http://www.w3.org/2000/svg" xmlns:xlink="http://www.w3.org/1999/xlink" x="0px" y="0px"
	 width="256px" height="256px" viewBox="0 0 256 256" enable-background="new 0 0 256 256" xml:space="preserve">
<text transform="matrix(1 0 0 1 1 178.6797)" font-family="'SourceSansPro-Bold'" font-size="182.1092">IC</text>
<text transform="matrix(1 0 0 1 10 230.6572)" font-family="'SourceSansPro-Regular'" font-size="31.0759">@kevinweber</text>
<image overflow="visible" width="181" height="181" xlink:href="275C4172288A5850.png"  transform="matrix(0.24 0 0 0.24 204.127 199.1387)">
</image>
<g>
	<g>
		<path fill-rule="evenodd" clip-rule="evenodd" d="M184.978,128.54c-3.25-3.034-6.562-6.127-9.946-9.286
			c3.713-3.357,7.146-6.461,9.948-8.995c0-4.425-0.058-7.397,0.014-10.367c0.078-3.222,1.83-5.039,5.033-5.049
			c16.475-0.053,32.949-0.044,49.424-0.01c3.419,0.007,5.266,1.86,5.274,5.284c0.035,13.35,0.056,26.7-0.009,40.051
			c-0.021,4.002-1.985,5.845-6.135,5.856c-15.764,0.043-31.528,0.041-47.293,0.001c-4.532-0.011-6.258-1.873-6.304-6.554
			C184.951,136.064,184.978,132.656,184.978,128.54z"/>
	</g>
	<g>
		<path fill="#FFFFFF" d="M213.165,128.475v-4.583h-4.621v-3.165h4.621v-4.584h3.079v4.584h4.633v3.165h-4.633v4.583H213.165z"/>
	</g>
</g>
</svg>
